<svg xmlns="http://www.w3.org/2000/svg" width="97" height="70" viewBox="0 0 97 70" fill="none">
  <g clip-path="url(#clip0_331_632)">
    <path d="M50.5532 1.77222L47.4825 0L29.0632 10.6349V31.9031L29.7709 32.3116L32.1339 33.6753L47.4825 42.5379L53.6223 38.9935V35.4475V17.7238L41.3427 10.6349L38.2736 12.4071L50.5532 19.496V37.2197L47.4825 38.9935L32.1339 30.1308V12.4071L47.4825 3.54445L62.8327 12.4071V33.6753L65.9018 31.9031V10.6349L50.5532 1.77222Z" fill="#511CF7"/>
    <path d="M44.4138 8.86255L56.6933 15.9514V37.2196L59.7625 35.4474V14.1792L47.4829 7.08881L44.4138 8.86255Z" fill="#511CF7"/>
    <path d="M19.95 61.109V69.2093H17.3745V61.4522C17.3745 58.9328 15.7146 58.1036 14.3114 58.1036C12.9082 58.1036 11.2772 58.9343 11.2772 61.4522V69.2093H8.70166V61.4522C8.70166 58.9328 7.04182 58.1036 5.60976 58.1036C4.17771 58.1036 2.57557 58.9343 2.57557 61.4522V69.2093H0V56.0429H2.57557V57.6177C3.52015 56.3876 4.95068 55.8424 6.35388 55.8424C8.01373 55.8424 9.73128 56.4726 10.6182 58.1613C11.6204 56.4438 13.423 55.8424 15.054 55.8424C17.458 55.8424 19.9485 57.159 19.9485 61.109H19.95Z" fill="#1C1C1C"/>
    <path d="M35.1485 56.0429V69.2093H32.5729V67.1773C31.5995 68.5805 30.0824 69.4386 28.0505 69.4386C24.3299 69.4386 21.6677 66.5471 21.6677 62.6261C21.6677 58.705 24.3299 55.8424 28.0505 55.8424C30.0824 55.8424 31.5995 56.7004 32.5729 58.0748V56.0429H35.1485ZM32.5729 62.6261C32.5729 60.0778 30.9131 58.2752 28.3937 58.2752C25.8743 58.2752 24.1856 60.0778 24.1856 62.6261C24.1856 65.1743 25.8454 67.0057 28.3937 67.0057C30.9419 67.0057 32.5729 65.1454 32.5729 62.6261Z" fill="#1C1C1C"/>
    <path d="M44.6504 55.8424V58.2752C42.8751 58.3041 40.014 59.0771 40.014 62.4545V69.2093H37.4385V56.0429H40.014V58.4757C41.0452 56.6731 42.8189 55.8713 44.6504 55.8424Z" fill="#1C1C1C"/>
    <path d="M46.6533 69.2093V50.6047H49.2577L49.2289 69.2093H46.6533Z" fill="#1C1C1C"/>
    <path d="M50.8325 62.6261C50.8325 58.6473 53.6085 55.7847 57.5873 55.7847C61.5661 55.7847 64.2844 58.6473 64.2844 62.6261C64.2844 66.6049 61.5372 69.4674 57.5873 69.4674C53.6374 69.4674 50.8325 66.5487 50.8325 62.6261ZM61.7377 62.6261C61.7377 60.1067 60.0778 58.2753 57.5873 58.2753C55.0968 58.2753 53.4081 60.1067 53.4081 62.6261C53.4081 65.1455 55.0679 67.0058 57.5873 67.0058C60.1067 67.0058 61.7377 65.1166 61.7377 62.6261Z" fill="#1C1C1C"/>
    <path d="M84.2924 56.0428L79.9127 69.2092H77.366L74.2741 60.1067L71.1548 69.2092H68.6081L64.2861 56.0428H66.9771L70.0402 65.5737L73.3599 56.0428H75.249L78.5125 65.5737L81.6044 56.0428H84.2954H84.2924Z" fill="#1C1C1C"/>
    <path d="M97 62.626V63.3702H86.6385C86.8966 65.7179 88.5565 67.2335 90.8466 67.2335C92.7357 67.2335 93.9385 66.3755 94.5672 65.4583L96.3698 66.746C95.2247 68.4059 93.2505 69.4659 90.845 69.4659C86.8374 69.4659 84.1479 66.5471 84.1479 62.6245C84.1479 58.7019 86.7235 55.812 90.6734 55.812C94.6234 55.812 96.9985 58.7035 96.9985 62.6245L97 62.626ZM86.6385 61.6815H94.596C94.2817 59.478 92.8785 57.8743 90.675 57.8743C88.4715 57.8743 86.9544 59.3914 86.6385 61.6815Z" fill="#1C1C1C"/>
  </g>
  <defs>
    <clipPath id="clip0_331_632">
      <rect width="97" height="69.466" fill="white"/>
    </clipPath>
  </defs>
</svg>